<svg xmlns="http://www.w3.org/2000/svg" viewBox="0 0 24 24" width="24" height="24" fill="none" stroke="#17181C" stroke-width="1.75" stroke-linecap="round" stroke-linejoin="round"><path d="M5.5 3.25H8.5A2.25 2.25 0 0 1 10.75 5.5V8.5A2.25 2.25 0 0 1 8.5 10.75H5.5A2.25 2.25 0 0 1 3.25 8.5V5.5A2.25 2.25 0 0 1 5.5 3.25Z"/><path d="M15.5 3.25H18.5A2.25 2.25 0 0 1 20.75 5.5V8.5A2.25 2.25 0 0 1 18.5 10.75H15.5A2.25 2.25 0 0 1 13.25 8.5V5.5A2.25 2.25 0 0 1 15.5 3.25Z" fill="#3D38F5" stroke="#3D38F5"/><path d="M5.5 13.25H8.5A2.25 2.25 0 0 1 10.75 15.5V18.5A2.25 2.25 0 0 1 8.5 20.75H5.5A2.25 2.25 0 0 1 3.25 18.5V15.5A2.25 2.25 0 0 1 5.5 13.25Z"/><path d="M15.5 13.25H18.5A2.25 2.25 0 0 1 20.75 15.5V18.5A2.25 2.25 0 0 1 18.5 20.75H15.5A2.25 2.25 0 0 1 13.25 18.5V15.5A2.25 2.25 0 0 1 15.5 13.25Z"/></svg>
