<svg xmlns="http://www.w3.org/2000/svg" viewBox="0 0 24 24" width="24" height="24" fill="none" stroke="#17181C" stroke-width="1.75" stroke-linecap="round" stroke-linejoin="round"><defs><mask id="k1" maskUnits="userSpaceOnUse" x="-2" y="-2" width="28" height="28"><rect x="-2" y="-2" width="28" height="28" fill="#fff"/><path d="M10.25 2.75H13.75A1.25 1.25 0 0 1 15 4V5A1.25 1.25 0 0 1 13.75 6.25H10.25A1.25 1.25 0 0 1 9 5V4A1.25 1.25 0 0 1 10.25 2.75Z" fill="#000"/></mask></defs><g mask="url(#k1)"><path d="M7.5 4.5H16.5A2.5 2.5 0 0 1 19 7V18.5A2.5 2.5 0 0 1 16.5 21H7.5A2.5 2.5 0 0 1 5 18.5V7A2.5 2.5 0 0 1 7.5 4.5Z"/></g><path d="M10.25 2.75H13.75A1.25 1.25 0 0 1 15 4V5A1.25 1.25 0 0 1 13.75 6.25H10.25A1.25 1.25 0 0 1 9 5V4A1.25 1.25 0 0 1 10.25 2.75Z" stroke="#17181C"/><path d="M8.5 11H15.5M8.5 15H13"/></svg>
